<mxfile host="app.diagrams.net" agent="Mozilla/5.0 (Windows NT 10.0; Win64; x64) AppleWebKit/537.36 (KHTML, like Gecko) Chrome/131.0.0.0 Safari/537.36" version="25.0.3">
  <diagram id="uIc7WPN1v9Q1WBNqN6XO" name="Desenho Completo">
    <mxGraphModel dx="1466" dy="494" grid="0" gridSize="10" guides="0" tooltips="1" connect="1" arrows="1" fold="1" page="0" pageScale="1" pageWidth="827" pageHeight="1169" background="none" math="0" shadow="1">
      <root>
        <mxCell id="0" />
        <mxCell id="1" parent="0" />
        <mxCell id="Yjw_6APRhzTF-WeU1CJU-97" value="" style="outlineConnect=0;gradientColor=none;html=1;whiteSpace=wrap;fontSize=12;fontStyle=0;strokeColor=#879196;fillColor=none;verticalAlign=top;align=center;fontColor=#879196;dashed=1;spacingTop=3;" parent="1" vertex="1">
          <mxGeometry x="34" y="217" width="1055" height="770" as="geometry" />
        </mxCell>
        <mxCell id="FrljeP56To3AKq9kFVUU-372" value="Ferramenta SFTP" style="outlineConnect=0;gradientColor=none;html=1;whiteSpace=wrap;fontSize=12;fontStyle=0;strokeColor=#879196;fillColor=none;verticalAlign=top;align=center;fontColor=#879196;dashed=1;spacingTop=3;container=0;" parent="1" vertex="1">
          <mxGeometry x="101" y="341" width="160" height="602" as="geometry" />
        </mxCell>
        <mxCell id="FrljeP56To3AKq9kFVUU-113" value="S3 Datashare&amp;nbsp;" style="sketch=0;points=[[0,0,0],[0.25,0,0],[0.5,0,0],[0.75,0,0],[1,0,0],[0,1,0],[0.25,1,0],[0.5,1,0],[0.75,1,0],[1,1,0],[0,0.25,0],[0,0.5,0],[0,0.75,0],[1,0.25,0],[1,0.5,0],[1,0.75,0]];outlineConnect=0;fontColor=#232F3E;fillColor=#7AA116;strokeColor=#ffffff;dashed=0;verticalLabelPosition=bottom;verticalAlign=top;align=center;html=1;fontSize=12;fontStyle=0;aspect=fixed;shape=mxgraph.aws4.resourceIcon;resIcon=mxgraph.aws4.s3;container=0;" parent="1" vertex="1">
          <mxGeometry x="732" y="635" width="78" height="78" as="geometry" />
        </mxCell>
        <mxCell id="FrljeP56To3AKq9kFVUU-446" value="&lt;h1 style=&quot;margin-top: 0px;&quot;&gt;Arquitetura SFTP&lt;/h1&gt;&lt;p&gt;Versão 1.0 | Data atualização 12/12/2024&lt;/p&gt;" style="text;html=1;whiteSpace=wrap;overflow=hidden;rounded=0;" parent="1" vertex="1">
          <mxGeometry x="100" y="238" width="2367" height="70" as="geometry" />
        </mxCell>
        <mxCell id="FrljeP56To3AKq9kFVUU-441" value="arquivo" style="sketch=0;outlineConnect=0;fontColor=#232F3E;gradientColor=none;fillColor=#232F3D;strokeColor=none;dashed=0;verticalLabelPosition=bottom;verticalAlign=top;align=center;html=1;fontSize=12;fontStyle=0;aspect=fixed;pointerEvents=1;shape=mxgraph.aws4.document;" parent="1" vertex="1">
          <mxGeometry x="602" y="582" width="27" height="36.95" as="geometry" />
        </mxCell>
        <mxCell id="-TX-SFGv-V37GnyshlO7-4" value="User1" style="image;aspect=fixed;html=1;points=[];align=center;fontSize=12;image=img/lib/azure2/general/Folder_Blank.svg;" vertex="1" parent="1">
          <mxGeometry x="151" y="431" width="69" height="56.00000000000001" as="geometry" />
        </mxCell>
        <mxCell id="-TX-SFGv-V37GnyshlO7-5" value="User2" style="image;aspect=fixed;html=1;points=[];align=center;fontSize=12;image=img/lib/azure2/general/Folder_Blank.svg;" vertex="1" parent="1">
          <mxGeometry x="151" y="537" width="69" height="56.00000000000001" as="geometry" />
        </mxCell>
        <mxCell id="-TX-SFGv-V37GnyshlO7-6" value="User3" style="image;aspect=fixed;html=1;points=[];align=center;fontSize=12;image=img/lib/azure2/general/Folder_Blank.svg;" vertex="1" parent="1">
          <mxGeometry x="151" y="643" width="69" height="56.00000000000001" as="geometry" />
        </mxCell>
        <mxCell id="-TX-SFGv-V37GnyshlO7-7" value="User4" style="image;aspect=fixed;html=1;points=[];align=center;fontSize=12;image=img/lib/azure2/general/Folder_Blank.svg;" vertex="1" parent="1">
          <mxGeometry x="151" y="755" width="69" height="56.00000000000001" as="geometry" />
        </mxCell>
        <mxCell id="-TX-SFGv-V37GnyshlO7-8" value="User5" style="image;aspect=fixed;html=1;points=[];align=center;fontSize=12;image=img/lib/azure2/general/Folder_Blank.svg;" vertex="1" parent="1">
          <mxGeometry x="151" y="851" width="69" height="56.00000000000001" as="geometry" />
        </mxCell>
        <mxCell id="-TX-SFGv-V37GnyshlO7-9" value="" style="edgeStyle=orthogonalEdgeStyle;rounded=0;orthogonalLoop=0;jettySize=auto;html=1;entryX=0;entryY=0.5;entryDx=0;entryDy=0;entryPerimeter=0;fixDash=0;metaEdit=0;ignoreEdge=0;flowAnimation=1;endSize=6;strokeWidth=3;" edge="1" parent="1" source="z1Lv32-v4Hf2Az4ppG6G-14" target="FrljeP56To3AKq9kFVUU-113">
          <mxGeometry relative="1" as="geometry">
            <mxPoint x="531" y="662" as="sourcePoint" />
            <mxPoint x="665" y="662" as="targetPoint" />
            <Array as="points" />
          </mxGeometry>
        </mxCell>
        <mxCell id="-TX-SFGv-V37GnyshlO7-10" value="Lambda" style="sketch=0;points=[[0,0,0],[0.25,0,0],[0.5,0,0],[0.75,0,0],[1,0,0],[0,1,0],[0.25,1,0],[0.5,1,0],[0.75,1,0],[1,1,0],[0,0.25,0],[0,0.5,0],[0,0.75,0],[1,0.25,0],[1,0.5,0],[1,0.75,0]];outlineConnect=0;fontColor=#232F3E;fillColor=#ED7100;strokeColor=#ffffff;dashed=0;verticalLabelPosition=bottom;verticalAlign=top;align=center;html=1;fontSize=12;fontStyle=0;aspect=fixed;shape=mxgraph.aws4.resourceIcon;resIcon=mxgraph.aws4.lambda;" vertex="1" parent="1">
          <mxGeometry x="396" y="315" width="78" height="78" as="geometry" />
        </mxCell>
        <mxCell id="-TX-SFGv-V37GnyshlO7-11" value="" style="edgeStyle=orthogonalEdgeStyle;rounded=0;orthogonalLoop=0;jettySize=auto;html=1;fixDash=0;metaEdit=0;ignoreEdge=0;flowAnimation=1;endSize=6;strokeWidth=3;" edge="1" parent="1" source="z1Lv32-v4Hf2Az4ppG6G-16" target="-TX-SFGv-V37GnyshlO7-2">
          <mxGeometry relative="1" as="geometry">
            <mxPoint x="444" y="469.9999999999998" as="sourcePoint" />
            <mxPoint x="444" y="632" as="targetPoint" />
            <Array as="points">
              <mxPoint x="452" y="609" />
              <mxPoint x="452" y="609" />
            </Array>
          </mxGeometry>
        </mxCell>
        <mxCell id="-TX-SFGv-V37GnyshlO7-12" value="Secrets Manager" style="sketch=0;points=[[0,0,0],[0.25,0,0],[0.5,0,0],[0.75,0,0],[1,0,0],[0,1,0],[0.25,1,0],[0.5,1,0],[0.75,1,0],[1,1,0],[0,0.25,0],[0,0.5,0],[0,0.75,0],[1,0.25,0],[1,0.5,0],[1,0.75,0]];outlineConnect=0;fontColor=#232F3E;fillColor=#DD344C;strokeColor=#ffffff;dashed=0;verticalLabelPosition=bottom;verticalAlign=top;align=center;html=1;fontSize=12;fontStyle=0;aspect=fixed;shape=mxgraph.aws4.resourceIcon;resIcon=mxgraph.aws4.secrets_manager;" vertex="1" parent="1">
          <mxGeometry x="573" y="315" width="78" height="78" as="geometry" />
        </mxCell>
        <mxCell id="-TX-SFGv-V37GnyshlO7-13" value="" style="edgeStyle=orthogonalEdgeStyle;rounded=0;orthogonalLoop=0;jettySize=auto;html=1;entryX=0;entryY=0.5;entryDx=0;entryDy=0;entryPerimeter=0;fixDash=0;metaEdit=0;ignoreEdge=0;flowAnimation=1;endSize=6;strokeWidth=3;" edge="1" parent="1" source="-TX-SFGv-V37GnyshlO7-10" target="-TX-SFGv-V37GnyshlO7-12">
          <mxGeometry relative="1" as="geometry">
            <mxPoint x="444" y="642" as="sourcePoint" />
            <mxPoint x="444" y="480" as="targetPoint" />
            <Array as="points" />
          </mxGeometry>
        </mxCell>
        <mxCell id="-TX-SFGv-V37GnyshlO7-14" value="" style="edgeStyle=orthogonalEdgeStyle;rounded=0;orthogonalLoop=0;jettySize=auto;html=1;entryX=1;entryY=0.75;entryDx=0;entryDy=0;entryPerimeter=0;fixDash=0;metaEdit=0;ignoreEdge=0;flowAnimation=1;endSize=6;strokeWidth=3;exitX=0;exitY=0.75;exitDx=0;exitDy=0;exitPerimeter=0;" edge="1" parent="1" source="-TX-SFGv-V37GnyshlO7-12" target="-TX-SFGv-V37GnyshlO7-10">
          <mxGeometry relative="1" as="geometry">
            <mxPoint x="483" y="553" as="sourcePoint" />
            <mxPoint x="655" y="551" as="targetPoint" />
            <Array as="points" />
          </mxGeometry>
        </mxCell>
        <mxCell id="-TX-SFGv-V37GnyshlO7-2" value="Transfer Family&lt;div&gt;SFTP&lt;/div&gt;" style="sketch=0;points=[[0,0,0],[0.25,0,0],[0.5,0,0],[0.75,0,0],[1,0,0],[0,1,0],[0.25,1,0],[0.5,1,0],[0.75,1,0],[1,1,0],[0,0.25,0],[0,0.5,0],[0,0.75,0],[1,0.25,0],[1,0.5,0],[1,0.75,0]];outlineConnect=0;fontColor=#232F3E;fillColor=#01A88D;strokeColor=#ffffff;dashed=0;verticalLabelPosition=bottom;verticalAlign=top;align=center;html=1;fontSize=12;fontStyle=0;aspect=fixed;shape=mxgraph.aws4.resourceIcon;resIcon=mxgraph.aws4.transfer_for_sftp;" vertex="1" parent="1">
          <mxGeometry x="400" y="633" width="78" height="78" as="geometry" />
        </mxCell>
        <mxCell id="z1Lv32-v4Hf2Az4ppG6G-6" value="" style="edgeStyle=orthogonalEdgeStyle;rounded=0;orthogonalLoop=0;jettySize=auto;html=1;entryX=0;entryY=0.5;entryDx=0;entryDy=0;entryPerimeter=0;fixDash=0;metaEdit=0;ignoreEdge=0;flowAnimation=1;endSize=6;strokeWidth=3;" edge="1" parent="1" source="-TX-SFGv-V37GnyshlO7-6" target="-TX-SFGv-V37GnyshlO7-2">
          <mxGeometry relative="1" as="geometry">
            <mxPoint x="249" y="753" as="sourcePoint" />
            <mxPoint x="694" y="737" as="targetPoint" />
            <Array as="points" />
          </mxGeometry>
        </mxCell>
        <mxCell id="z1Lv32-v4Hf2Az4ppG6G-7" value="" style="edgeStyle=orthogonalEdgeStyle;rounded=0;orthogonalLoop=0;jettySize=auto;html=1;entryX=0;entryY=0.5;entryDx=0;entryDy=0;entryPerimeter=0;fixDash=0;metaEdit=0;ignoreEdge=0;flowAnimation=1;endSize=6;strokeWidth=3;" edge="1" parent="1" source="-TX-SFGv-V37GnyshlO7-7" target="-TX-SFGv-V37GnyshlO7-2">
          <mxGeometry relative="1" as="geometry">
            <mxPoint x="286" y="801" as="sourcePoint" />
            <mxPoint x="466" y="802" as="targetPoint" />
            <Array as="points">
              <mxPoint x="310" y="783" />
              <mxPoint x="310" y="672" />
            </Array>
          </mxGeometry>
        </mxCell>
        <mxCell id="z1Lv32-v4Hf2Az4ppG6G-8" value="" style="edgeStyle=orthogonalEdgeStyle;rounded=0;orthogonalLoop=0;jettySize=auto;html=1;entryX=0;entryY=0.5;entryDx=0;entryDy=0;entryPerimeter=0;fixDash=0;metaEdit=0;ignoreEdge=0;flowAnimation=1;endSize=6;strokeWidth=3;" edge="1" parent="1" source="-TX-SFGv-V37GnyshlO7-8" target="-TX-SFGv-V37GnyshlO7-2">
          <mxGeometry relative="1" as="geometry">
            <mxPoint x="253" y="874" as="sourcePoint" />
            <mxPoint x="433" y="763" as="targetPoint" />
            <Array as="points" />
          </mxGeometry>
        </mxCell>
        <mxCell id="z1Lv32-v4Hf2Az4ppG6G-9" value="" style="edgeStyle=orthogonalEdgeStyle;rounded=0;orthogonalLoop=0;jettySize=auto;html=1;entryX=0;entryY=0.5;entryDx=0;entryDy=0;entryPerimeter=0;fixDash=0;metaEdit=0;ignoreEdge=0;flowAnimation=1;endSize=6;strokeWidth=3;" edge="1" parent="1" source="-TX-SFGv-V37GnyshlO7-5" target="-TX-SFGv-V37GnyshlO7-2">
          <mxGeometry relative="1" as="geometry">
            <mxPoint x="198" y="566" as="sourcePoint" />
            <mxPoint x="378" y="359" as="targetPoint" />
            <Array as="points">
              <mxPoint x="309" y="567" />
              <mxPoint x="309" y="672" />
            </Array>
          </mxGeometry>
        </mxCell>
        <mxCell id="z1Lv32-v4Hf2Az4ppG6G-10" value="" style="edgeStyle=orthogonalEdgeStyle;rounded=0;orthogonalLoop=0;jettySize=auto;html=1;entryX=0;entryY=0.5;entryDx=0;entryDy=0;entryPerimeter=0;fixDash=0;metaEdit=0;ignoreEdge=0;flowAnimation=1;endSize=6;strokeWidth=3;" edge="1" parent="1" source="-TX-SFGv-V37GnyshlO7-4" target="-TX-SFGv-V37GnyshlO7-2">
          <mxGeometry relative="1" as="geometry">
            <mxPoint x="246" y="470" as="sourcePoint" />
            <mxPoint x="426" y="575" as="targetPoint" />
            <Array as="points">
              <mxPoint x="310" y="470" />
              <mxPoint x="310" y="672" />
            </Array>
          </mxGeometry>
        </mxCell>
        <mxCell id="z1Lv32-v4Hf2Az4ppG6G-13" value="" style="edgeStyle=orthogonalEdgeStyle;rounded=0;orthogonalLoop=0;jettySize=auto;html=1;entryX=0;entryY=0.5;entryDx=0;entryDy=0;entryPerimeter=0;fixDash=0;metaEdit=0;ignoreEdge=0;flowAnimation=1;endSize=6;strokeWidth=3;" edge="1" parent="1" source="-TX-SFGv-V37GnyshlO7-2" target="z1Lv32-v4Hf2Az4ppG6G-14">
          <mxGeometry relative="1" as="geometry">
            <mxPoint x="478" y="672" as="sourcePoint" />
            <mxPoint x="678" y="672" as="targetPoint" />
            <Array as="points" />
          </mxGeometry>
        </mxCell>
        <mxCell id="z1Lv32-v4Hf2Az4ppG6G-14" value="Role permission&amp;nbsp;&lt;div&gt;for user&lt;/div&gt;" style="sketch=0;outlineConnect=0;fontColor=#232F3E;gradientColor=none;fillColor=#DD344C;strokeColor=none;dashed=0;verticalLabelPosition=bottom;verticalAlign=top;align=center;html=1;fontSize=12;fontStyle=0;aspect=fixed;pointerEvents=1;shape=mxgraph.aws4.role;" vertex="1" parent="1">
          <mxGeometry x="570" y="652" width="78" height="44" as="geometry" />
        </mxCell>
        <mxCell id="z1Lv32-v4Hf2Az4ppG6G-17" value="" style="edgeStyle=orthogonalEdgeStyle;rounded=0;orthogonalLoop=0;jettySize=auto;html=1;fixDash=0;metaEdit=0;ignoreEdge=0;flowAnimation=1;endSize=6;strokeWidth=3;exitX=0.75;exitY=1;exitDx=0;exitDy=0;exitPerimeter=0;" edge="1" parent="1" source="-TX-SFGv-V37GnyshlO7-10" target="z1Lv32-v4Hf2Az4ppG6G-16">
          <mxGeometry relative="1" as="geometry">
            <mxPoint x="444" y="469.9999999999998" as="sourcePoint" />
            <mxPoint x="444" y="633" as="targetPoint" />
            <Array as="points">
              <mxPoint x="454" y="496" />
              <mxPoint x="454" y="496" />
            </Array>
          </mxGeometry>
        </mxCell>
        <mxCell id="z1Lv32-v4Hf2Az4ppG6G-16" value="" style="sketch=0;points=[[0,0,0],[0.25,0,0],[0.5,0,0],[0.75,0,0],[1,0,0],[0,1,0],[0.25,1,0],[0.5,1,0],[0.75,1,0],[1,1,0],[0,0.25,0],[0,0.5,0],[0,0.75,0],[1,0.25,0],[1,0.5,0],[1,0.75,0]];outlineConnect=0;fontColor=#232F3E;fillColor=#8C4FFF;strokeColor=#ffffff;dashed=0;verticalLabelPosition=bottom;verticalAlign=top;align=center;html=1;fontSize=12;fontStyle=0;aspect=fixed;shape=mxgraph.aws4.resourceIcon;resIcon=mxgraph.aws4.api_gateway;" vertex="1" parent="1">
          <mxGeometry x="396" y="478" width="78" height="78" as="geometry" />
        </mxCell>
        <mxCell id="z1Lv32-v4Hf2Az4ppG6G-19" value="" style="edgeStyle=orthogonalEdgeStyle;rounded=0;orthogonalLoop=0;jettySize=auto;html=1;fixDash=0;metaEdit=0;ignoreEdge=0;flowAnimation=1;endSize=6;strokeWidth=3;entryX=0.25;entryY=1;entryDx=0;entryDy=0;entryPerimeter=0;" edge="1" parent="1" source="z1Lv32-v4Hf2Az4ppG6G-16" target="-TX-SFGv-V37GnyshlO7-10">
          <mxGeometry relative="1" as="geometry">
            <mxPoint x="417" y="521" as="sourcePoint" />
            <mxPoint x="418" y="414" as="targetPoint" />
            <Array as="points">
              <mxPoint x="417" y="468" />
              <mxPoint x="415" y="468" />
            </Array>
          </mxGeometry>
        </mxCell>
        <mxCell id="z1Lv32-v4Hf2Az4ppG6G-20" value="" style="edgeStyle=orthogonalEdgeStyle;rounded=0;orthogonalLoop=0;jettySize=auto;html=1;fixDash=0;metaEdit=0;ignoreEdge=0;flowAnimation=1;endSize=6;strokeWidth=3;" edge="1" parent="1" source="-TX-SFGv-V37GnyshlO7-2" target="z1Lv32-v4Hf2Az4ppG6G-16">
          <mxGeometry relative="1" as="geometry">
            <mxPoint x="416" y="644" as="sourcePoint" />
            <mxPoint x="415" y="537" as="targetPoint" />
            <Array as="points">
              <mxPoint x="416" y="593" />
              <mxPoint x="416" y="593" />
            </Array>
          </mxGeometry>
        </mxCell>
      </root>
    </mxGraphModel>
  </diagram>
</mxfile>
